<svg id="Capa_1" data-name="Capa 1" xmlns="http://www.w3.org/2000/svg" xmlns:xlink="http://www.w3.org/1999/xlink" viewBox="0 0 366.87 340"><defs><style>.cls-1,.cls-41,.cls-46{fill:none;}.cls-2{clip-path:url(#clip-path);}.cls-3{clip-path:url(#clip-path-2);}.cls-4{fill:url(#Degradado_sin_nombre);}.cls-5{clip-path:url(#clip-path-3);}.cls-6{fill:url(#Degradado_sin_nombre_2);}.cls-7{clip-path:url(#clip-path-4);}.cls-8{fill:url(#Degradado_sin_nombre_3);}.cls-9{clip-path:url(#clip-path-5);}.cls-10{fill:url(#Degradado_sin_nombre_4);}.cls-11{clip-path:url(#clip-path-6);}.cls-12{fill:url(#Degradado_sin_nombre_5);}.cls-13{clip-path:url(#clip-path-7);}.cls-14{fill:url(#Degradado_sin_nombre_6);}.cls-15{clip-path:url(#clip-path-8);}.cls-16{fill:url(#Degradado_sin_nombre_7);}.cls-17{clip-path:url(#clip-path-9);}.cls-18{fill:url(#Degradado_sin_nombre_8);}.cls-19{clip-path:url(#clip-path-10);}.cls-20{fill:url(#Degradado_sin_nombre_9);}.cls-21{clip-path:url(#clip-path-11);}.cls-22{fill:url(#Degradado_sin_nombre_10);}.cls-23{clip-path:url(#clip-path-12);}.cls-24{fill:url(#Degradado_sin_nombre_11);}.cls-25{clip-path:url(#clip-path-13);}.cls-26{fill:url(#Degradado_sin_nombre_12);}.cls-27{clip-path:url(#clip-path-14);}.cls-28{fill:url(#Degradado_sin_nombre_13);}.cls-29{clip-path:url(#clip-path-15);}.cls-30{fill:url(#Degradado_sin_nombre_14);}.cls-31{clip-path:url(#clip-path-16);}.cls-32{fill:url(#Degradado_sin_nombre_15);}.cls-33{clip-path:url(#clip-path-17);}.cls-34{fill:url(#Degradado_sin_nombre_16);}.cls-35{clip-path:url(#clip-path-18);}.cls-36{fill:url(#Degradado_sin_nombre_17);}.cls-37{clip-path:url(#clip-path-19);}.cls-38{fill:url(#Degradado_sin_nombre_18);}.cls-39{clip-path:url(#clip-path-20);}.cls-40{fill:url(#Degradado_sin_nombre_19);}.cls-41,.cls-46{stroke:#fff;stroke-miterlimit:10;}.cls-41{stroke-width:0.25px;}.cls-42{clip-path:url(#clip-path-22);}.cls-43{fill:url(#Degradado_sin_nombre_20);}.cls-44{fill:url(#Degradado_sin_nombre_21);}.cls-45{fill:url(#Degradado_sin_nombre_22);}.cls-46{stroke-width:0.5px;}.cls-47{clip-path:url(#clip-path-27);}.cls-48{fill:url(#Degradado_sin_nombre_23);}.cls-49{opacity:0.85;}.cls-50{clip-path:url(#clip-path-29);}.cls-51{fill:#243889;}</style><clipPath id="clip-path"><rect class="cls-1" width="366.87" height="340"/></clipPath><clipPath id="clip-path-2"><path class="cls-1" d="M188,81.06c-.06-16.5-13.8-37.19-31-59.31C174.87,34,189.87,53.94,197.56,78c23.43-19.2-2.83-57.58-49.4-66.9,7.45,44.72,20.51,68.82,39.8,70"/></clipPath><linearGradient id="Degradado_sin_nombre" y1="340.08" x2="1" y2="340.08" gradientTransform="matrix(0, 75.71, 75.71, 0, -25563.74, 0.24)" gradientUnits="userSpaceOnUse"><stop offset="0" stop-color="#98c21d"/><stop offset="0.35" stop-color="#98c21d"/><stop offset="1" stop-color="#009a3b"/></linearGradient><clipPath id="clip-path-3"><path class="cls-1" d="M89.89,119c20.23,27,37.08,38.4,50.21,32.59-5.7-10.87-21.83-19.83-40.73-28.55,16,2,32.7,10,46,23.22,7.06-16.45-10.76-30.17-35.41-30.17A72.68,72.68,0,0,0,89.89,119"/></clipPath><linearGradient id="Degradado_sin_nombre_2" y1="339.96" x2="1" y2="339.96" gradientTransform="matrix(57.02, 0, 0, -57.02, 89.89, 19522.2)" gradientUnits="userSpaceOnUse"><stop offset="0" stop-color="#a7c714"/><stop offset="0.12" stop-color="#9fc516"/><stop offset="0.29" stop-color="#8bbf1b"/><stop offset="0.5" stop-color="#68b623"/><stop offset="0.75" stop-color="#39a92e"/><stop offset="1" stop-color="#009a3c"/></linearGradient><clipPath id="clip-path-4"><path class="cls-1" d="M140.49,100.51c28,12,46.35,13.33,54,2.86-9.36-5.94-26-5.67-44.76-4,13.42-5.66,30.11-6.93,46.47-2.58-1.12-9.55-8.71-14.37-18.73-14.37-11.15,0-25.32,6-37,18.06"/></clipPath><linearGradient id="Degradado_sin_nombre_3" y1="339.97" x2="1" y2="339.97" gradientTransform="matrix(55.71, 0, 0, -55.71, 140.5, 19037.07)" gradientUnits="userSpaceOnUse"><stop offset="0" stop-color="#a7c714"/><stop offset="0.16" stop-color="#91c119"/><stop offset="0.51" stop-color="#5ab226"/><stop offset="0.99" stop-color="#019a3c"/><stop offset="1" stop-color="#009a3c"/></linearGradient><clipPath id="clip-path-5"><path class="cls-1" d="M213,96.32c3.17-16.63,11.55-31.12,22.47-40.76-9.66,16.14-17.13,31-15.83,42.06,12.75-2.36,19.5-19.48,20.83-49.9-30.26,10-44.63,37.7-27.47,48.6"/></clipPath><linearGradient id="Degradado_sin_nombre_4" y1="340.18" x2="1" y2="340.18" gradientTransform="matrix(34.83, 0, 0, -34.83, 205.92, 11922.08)" gradientUnits="userSpaceOnUse"><stop offset="0" stop-color="#009a3c"/><stop offset="0.01" stop-color="#009a3c"/><stop offset="0.05" stop-color="#0c9d39"/><stop offset="0.21" stop-color="#3baa2d"/><stop offset="0.38" stop-color="#63b524"/><stop offset="0.54" stop-color="#81bd1d"/><stop offset="0.7" stop-color="#97c317"/><stop offset="0.85" stop-color="#a4c714"/><stop offset="1" stop-color="#a8c813"/><stop offset="1" stop-color="#a8c813"/></linearGradient><clipPath id="clip-path-6"><path class="cls-1" d="M224.81,125.78c6.74-11.73,16.84-20.48,27.6-24.9-11.5,9.66-21,19-22.93,27.61,10.24,1.55,19.81-9.61,28.75-32.23h-.79c-25,0-42.64,16.95-32.63,29.52"/></clipPath><linearGradient id="Degradado_sin_nombre_5" y1="340.02" x2="1" y2="340.02" gradientTransform="matrix(36.28, 0, 0, -36.28, 222.96, 12448.69)" gradientUnits="userSpaceOnUse"><stop offset="0" stop-color="#009a3c"/><stop offset="0.06" stop-color="#109e38"/><stop offset="0.3" stop-color="#45ad2b"/><stop offset="0.52" stop-color="#70b821"/><stop offset="0.71" stop-color="#8ec01a"/><stop offset="0.88" stop-color="#a0c516"/><stop offset="1" stop-color="#a7c714"/><stop offset="1" stop-color="#a7c714"/></linearGradient><clipPath id="clip-path-7"><path class="cls-1" d="M223.39,137.08a42.55,42.55,0,0,1,26.35,6.66c-10.55-3.06-20.07-5.08-26.1-2.72,3.21,6.86,13.88,8.13,31.26,4.39-6.19-9.57-15.27-14.79-22.21-14.79-4.38,0-7.9,2.08-9.3,6.46"/></clipPath><linearGradient id="Degradado_sin_nombre_6" y1="339.97" x2="1" y2="339.97" gradientTransform="matrix(31.52, 0, 0, -31.52, 223.39, 10854.81)" gradientUnits="userSpaceOnUse"><stop offset="0" stop-color="#009a3c"/><stop offset="0.11" stop-color="#1da235"/><stop offset="0.33" stop-color="#4eaf29"/><stop offset="0.53" stop-color="#74b920"/><stop offset="0.71" stop-color="#90c119"/><stop offset="0.88" stop-color="#a1c515"/><stop offset="1" stop-color="#a7c714"/></linearGradient><clipPath id="clip-path-8"><path class="cls-1" d="M107.62,184.28A44.58,44.58,0,0,1,87,164.64c8,8.22,15.67,15,22.39,15.91.59-7.9-8.47-14.56-26.24-20.09,1.17,19.44,15.31,32.26,24.43,23.82"/></clipPath><linearGradient id="Degradado_sin_nombre_7" y1="340.05" x2="1" y2="340.05" gradientTransform="matrix(0, -26.27, -26.27, 0, 9028.38, 185.31)" gradientUnits="userSpaceOnUse"><stop offset="0" stop-color="#009a3c"/><stop offset="0.16" stop-color="#23a334"/><stop offset="0.45" stop-color="#5cb326"/><stop offset="0.69" stop-color="#85be1c"/><stop offset="0.88" stop-color="#9ec416"/><stop offset="1" stop-color="#a7c714"/></linearGradient><clipPath id="clip-path-9"><path class="cls-1" d="M160.21,154.46c-4.05-11.73-4-24-.58-34.09-.25,13.77.44,26,5.27,32.49,7.25-6.15,5.29-19.48-4.94-39.3-15.59,17.37-14.62,40.22.25,40.9"/></clipPath><linearGradient id="Degradado_sin_nombre_8" y1="340.04" y2="340.04" gradientTransform="matrix(33.9, 0, 0, -33.9, 143.69, 11660.13)" xlink:href="#Degradado_sin_nombre_7"/><clipPath id="clip-path-10"><path class="cls-1" d="M240.74,180.43c12.12-14,28-23.17,43.61-26.31-18,10-33.22,20-38,31.17,13.37,4.76,29.14-7.77,47.06-35.86a73,73,0,0,0-14.9-1.56c-27,0-46.49,15.8-37.75,32.56"/></clipPath><linearGradient id="Degradado_sin_nombre_9" y1="339.95" x2="1" y2="339.95" gradientTransform="matrix(54.77, 0, 0, -54.77, 240.62, 18787.59)" gradientUnits="userSpaceOnUse"><stop offset="0" stop-color="#009a3c"/><stop offset="0.03" stop-color="#079c3a"/><stop offset="0.38" stop-color="#4bae2a"/><stop offset="0.66" stop-color="#7dbc1e"/><stop offset="0.88" stop-color="#9bc417"/><stop offset="1" stop-color="#a7c714"/></linearGradient><clipPath id="clip-path-11"><path class="cls-1" d="M235.35,193.78c12.75,2.16,23.94,8.32,31.47,16.51-12.48-7.11-24-12.58-32.36-11.42,2,9.7,15.18,14.58,38.42,15.12-5.66-16.06-17.83-26-27.39-26a11.39,11.39,0,0,0-10.14,5.83"/></clipPath><linearGradient id="Degradado_sin_nombre_10" y1="340" y2="340" gradientTransform="matrix(38.42, 0, 0, -38.42, 234.46, 13264.58)" xlink:href="#Degradado_sin_nombre_9"/><clipPath id="clip-path-12"><path class="cls-1" d="M121.55,179.67c19.29-2.65,29.79-8,30.53-16.21C145,163.28,136,168.92,126.25,176a46.62,46.62,0,0,1,24.61-16.72,9.53,9.53,0,0,0-7.75-4c-8.21,0-18.2,9.7-21.56,24.32"/></clipPath><linearGradient id="Degradado_sin_nombre_11" x1="0" y1="340" x2="1" y2="340" gradientTransform="matrix(30.53, 0, 0, -30.53, 121.55, 10546.4)" xlink:href="#Degradado_sin_nombre_2"/><clipPath id="clip-path-13"><path class="cls-1" d="M113.75,178.39a30.78,30.78,0,0,1,4.87-19c-2.24,7.62-3.72,14.49-2,18.86,5-2.31,5.9-10,3.23-22.59-11.3,7.28-14.25,20.12-6.08,22.76"/></clipPath><linearGradient id="Degradado_sin_nombre_12" y1="340.1" y2="340.1" gradientTransform="matrix(18.41, 0, 0, -18.41, 104.65, 6429.48)" xlink:href="#Degradado_sin_nombre_7"/><clipPath id="clip-path-14"><path class="cls-1" d="M96.21,201.12c9.61-1.31,14.84-3.94,15.22-8.05-3.53-.1-8,2.7-12.87,6.23a23.18,23.18,0,0,1,12.27-8.3,4.75,4.75,0,0,0-3.87-2c-4.09,0-9.06,4.82-10.75,12.1"/></clipPath><linearGradient id="Degradado_sin_nombre_13" y1="340" y2="340" gradientTransform="matrix(-15.22, 0, 0, 15.22, 110, -4978.4)" xlink:href="#Degradado_sin_nombre_7"/><clipPath id="clip-path-15"><path class="cls-1" d="M205.69,131c-.14-4.29-3.85-9.57-8.47-15.2a28.23,28.23,0,0,1,10.94,14.33c6-5.16-1.14-15-13.31-17,2.26,11.58,5.82,17.75,10.84,17.92"/></clipPath><linearGradient id="Degradado_sin_nombre_14" y1="340" x2="1" y2="340" gradientTransform="matrix(15.45, 0, 0, -15.45, 194.86, 5373.49)" gradientUnits="userSpaceOnUse"><stop offset="0" stop-color="#a7c714"/><stop offset="0.15" stop-color="#a3c615"/><stop offset="0.3" stop-color="#96c218"/><stop offset="0.46" stop-color="#81bd1d"/><stop offset="0.62" stop-color="#63b524"/><stop offset="0.79" stop-color="#3daa2d"/><stop offset="0.95" stop-color="#0f9e38"/><stop offset="1" stop-color="#009a3c"/></linearGradient><clipPath id="clip-path-16"><path class="cls-1" d="M158,205.82c-19.89,2.94-34.31-4.09-43.82-20,2.75,17.29,25.32,35,61.18,40.58-8.38-19.65-8.23-36.7-1.27-51.66-9.17,6.58-14.46,17-16.09,31.13"/></clipPath><linearGradient id="Degradado_sin_nombre_15" y1="340.25" x2="1" y2="340.25" gradientTransform="matrix(0, -39.71, -39.71, 0, 13655.8, 237.4)" gradientUnits="userSpaceOnUse"><stop offset="0" stop-color="#113e58"/><stop offset="0.18" stop-color="#104664"/><stop offset="0.49" stop-color="#0e5b83"/><stop offset="0.9" stop-color="#0b7cb4"/><stop offset="1" stop-color="#0a85c1"/></linearGradient><clipPath id="clip-path-17"><path class="cls-1" d="M133.64,192.63a10.78,10.78,0,1,0,10.78-10.78,10.78,10.78,0,0,0-10.78,10.78"/></clipPath><linearGradient id="Degradado_sin_nombre_16" y1="340" x2="1" y2="340" gradientTransform="matrix(0, -17.79, -17.79, 0, 6192.51, 202.07)" gradientUnits="userSpaceOnUse"><stop offset="0" stop-color="#113e58"/><stop offset="0.01" stop-color="#113e58"/><stop offset="0.18" stop-color="#104664"/><stop offset="0.49" stop-color="#0e5b83"/><stop offset="0.9" stop-color="#0b7cb4"/><stop offset="1" stop-color="#0a85c1"/></linearGradient><clipPath id="clip-path-18"><path class="cls-1" d="M187.49,185.91c-7.25-16.59-23.3-26-42.34-33,17.53,14,33.14,31.1,34.44,71.69,59-41.59,51.09-101.53,16.59-135.77,24.83,39.51,24,74-8.69,97.1"/></clipPath><linearGradient id="Degradado_sin_nombre_17" y1="339.92" x2="1" y2="339.92" gradientTransform="matrix(0, -87.7, -87.7, 0, 30003.59, 219.86)" gradientUnits="userSpaceOnUse"><stop offset="0" stop-color="#841f22"/><stop offset="0.11" stop-color="#972422"/><stop offset="0.44" stop-color="#cc3123"/><stop offset="0.61" stop-color="#e13623"/><stop offset="1" stop-color="#e13623"/></linearGradient><clipPath id="clip-path-19"><path class="cls-1" d="M170.51,151.45A17.53,17.53,0,1,0,188,133.91a17.53,17.53,0,0,0-17.53,17.54"/></clipPath><linearGradient id="Degradado_sin_nombre_18" y1="340" x2="1" y2="340" gradientTransform="matrix(0, -35.08, -35.08, 0, 12114.28, 168.87)" gradientUnits="userSpaceOnUse"><stop offset="0" stop-color="#911d1e"/><stop offset="0.14" stop-color="#911d1e"/><stop offset="0.23" stop-color="#a1251e"/><stop offset="0.43" stop-color="#c0361e"/><stop offset="0.62" stop-color="#d6411e"/><stop offset="0.81" stop-color="#e3491e"/><stop offset="0.97" stop-color="#e84b1e"/><stop offset="1" stop-color="#e84b1e"/></linearGradient><clipPath id="clip-path-20"><path class="cls-1" d="M194.15,227.53c23-5.45,36.35-17.3,40.74-35.1-8.67,13.49-18.66,19.78-29.88,19.43-3.95-13.83-10.36-21-20.47-26.25,8,12.06,12.51,25.51,9.61,41.92"/></clipPath><linearGradient id="Degradado_sin_nombre_19" y1="340" x2="1" y2="340" gradientTransform="matrix(-0.42, 0, 0, 0.42, 185.94, 62.61)" gradientUnits="userSpaceOnUse"><stop offset="0" stop-color="#136c30"/><stop offset="0.27" stop-color="#608e3f"/><stop offset="0.53" stop-color="#a0ab4b"/><stop offset="0.74" stop-color="#cec054"/><stop offset="0.91" stop-color="#eacc59"/><stop offset="1" stop-color="#f5d15b"/></linearGradient><clipPath id="clip-path-22"><path class="cls-1" d="M203.46,199.24a8.79,8.79,0,1,0,8.79-8.79,8.79,8.79,0,0,0-8.79,8.79"/></clipPath><linearGradient id="Degradado_sin_nombre_20" y1="340" x2="1" y2="340" gradientTransform="matrix(-0.42, 0, 0, 0.42, 185.94, 55.28)" gradientUnits="userSpaceOnUse"><stop offset="0" stop-color="#136c30"/><stop offset="0.02" stop-color="#197036"/><stop offset="0.3" stop-color="#6aa27c"/><stop offset="0.54" stop-color="#aacab4"/><stop offset="0.75" stop-color="#d8e7dd"/><stop offset="0.91" stop-color="#f4f8f6"/><stop offset="1" stop-color="#fff"/></linearGradient><linearGradient id="Degradado_sin_nombre_21" y1="340" x2="1" y2="340" gradientTransform="matrix(0, -31.75, -31.75, 0, 11003.48, 221.65)" gradientUnits="userSpaceOnUse"><stop offset="0" stop-color="#e78620"/><stop offset="0.23" stop-color="#e88a1f"/><stop offset="0.45" stop-color="#eb951e"/><stop offset="0.66" stop-color="#f1a81b"/><stop offset="0.86" stop-color="#f9c217"/><stop offset="1" stop-color="#ffd814"/></linearGradient><linearGradient id="Degradado_sin_nombre_22" y1="339.92" y2="339.92" gradientTransform="matrix(0, -31.75, -31.75, 0, 11003.45, 221.64)" xlink:href="#Degradado_sin_nombre_21"/><clipPath id="clip-path-27"><path class="cls-1" d="M222,190.63c4.22-7.56,3.26-20.54,1.1-35.06,5,10.2,6.75,23.16,4.08,36.11,15.64-2.76,13.52-27.05-5.36-43.27-8.09,22.36-8.32,36.73.18,42.22"/></clipPath><linearGradient id="Degradado_sin_nombre_23" y1="340.09" x2="1" y2="340.09" gradientTransform="matrix(0, 30.16, 30.16, 0, -10030.53, 153.86)" gradientUnits="userSpaceOnUse"><stop offset="0" stop-color="#a7c714"/><stop offset="0.51" stop-color="#54b128"/><stop offset="0.99" stop-color="#009a3c"/><stop offset="1" stop-color="#009a3c"/></linearGradient><clipPath id="clip-path-29"><rect class="cls-1" x="32.2" y="191.28" width="293.76" height="88.8"/></clipPath></defs><title>LOGO VECTORIZADO CMYK CURVAS</title><g class="cls-2"><g class="cls-3"><rect class="cls-4" x="134.45" y="-3.77" width="100.24" height="99.67" transform="translate(9.16 119.67) rotate(-36.78)"/></g><g class="cls-5"><rect class="cls-6" x="89.89" y="116.05" width="62.52" height="41.31"/></g><g class="cls-7"><rect class="cls-8" x="140.49" y="82.45" width="55.71" height="31.39"/></g><g class="cls-9"><rect class="cls-10" x="184.7" y="39.59" width="66.88" height="66.16" transform="translate(23.6 195.23) rotate(-50.63)"/></g><g class="cls-11"><rect class="cls-12" x="209.01" y="86.63" width="55.01" height="53.04" transform="translate(-20.74 163.78) rotate(-36.7)"/></g><g class="cls-13"><rect class="cls-14" x="223.39" y="130.62" width="31.52" height="18.53"/></g><g class="cls-15"><rect class="cls-16" x="75.68" y="155.72" width="41.84" height="41.73" transform="translate(-97.35 122.78) rotate(-45.81)"/></g><g class="cls-17"><rect class="cls-18" x="136.55" y="118.18" width="43.42" height="31.65" transform="matrix(0.1, -1, 1, 0.1, 9.38, 278.37)"/></g><g class="cls-19"><rect class="cls-20" x="226.12" y="137.32" width="73.16" height="63.26" transform="translate(-45.7 119.51) rotate(-23.64)"/></g><g class="cls-21"><rect class="cls-22" x="234.46" y="187.95" width="38.42" height="26.04"/></g><g class="cls-23"><rect class="cls-24" x="121.55" y="155.35" width="30.53" height="24.32"/></g><g class="cls-25"><rect class="cls-26" x="100.96" y="156.06" width="26.17" height="21.91" transform="translate(-75.53 237.43) rotate(-76.05)"/></g><g class="cls-27"><rect class="cls-28" x="94.16" y="185.89" width="19.32" height="18.35" transform="translate(-88.11 85.55) rotate(-32.27)"/></g><g class="cls-29"><rect class="cls-30" x="194.85" y="113.09" width="19.25" height="17.92"/></g><g class="cls-31"><rect class="cls-32" x="104.82" y="161.62" width="79.88" height="77.81" transform="translate(-90.42 124.02) rotate(-36.16)"/></g><g class="cls-33"><rect class="cls-34" x="132.88" y="181.09" width="23.07" height="23.07" transform="translate(-13.59 10.98) rotate(-4.16)"/></g><g class="cls-35"><rect class="cls-36" x="139.6" y="85.12" width="104.56" height="143.16" transform="translate(-12.52 16.72) rotate(-4.83)"/></g><g class="cls-37"><rect class="cls-38" x="166.25" y="129.66" width="43.58" height="43.58" transform="translate(-35.25 59.6) rotate(-16.49)"/></g><g class="cls-39"><rect class="cls-40" x="184.54" y="185.61" width="50.35" height="41.92"/></g><g class="cls-2"><path class="cls-41" d="M194.15,227.53c23-5.45,36.35-17.3,40.74-35.1-8.67,13.49-18.66,19.78-29.88,19.43-3.95-13.83-10.36-21-20.47-26.25C192.52,197.67,197.05,211.12,194.15,227.53Z"/></g><g class="cls-42"><rect class="cls-43" x="203.46" y="190.45" width="17.57" height="17.57"/></g><g class="cls-2"><path class="cls-41" d="M221,199.24a8.79,8.79,0,1,1-8.78-8.79A8.79,8.79,0,0,1,221,199.24Z"/></g><g class="cls-39"><rect class="cls-44" x="184.42" y="185.47" width="50.58" height="42.19" transform="translate(-1.11 1.13) rotate(-0.31)"/></g><g class="cls-42"><rect class="cls-45" x="203.41" y="190.41" width="17.67" height="17.67" transform="translate(-1.07 1.15) rotate(-0.31)"/></g><g class="cls-2"><path class="cls-46" d="M194.15,227.53c23-5.45,36.35-17.3,40.74-35.1-8.67,13.49-18.66,19.78-29.88,19.43-3.95-13.83-10.36-21-20.47-26.25C192.52,197.67,197.05,211.12,194.15,227.53Z"/><path class="cls-46" d="M221,199.24a8.79,8.79,0,1,1-8.78-8.79A8.79,8.79,0,0,1,221,199.24Z"/></g><g class="cls-47"><rect class="cls-48" x="209.57" y="145.97" width="37.17" height="48.14" transform="translate(-28.73 47.65) rotate(-11.22)"/></g><g class="cls-2"><path class="cls-51" d="M22.67,279.43a2,2,0,0,0,0-1,13,13,0,0,0,1.2-1.75c.33-.6.63-1.17.89-1.73s.47-.94.7-1.35a11.37,11.37,0,0,1,.77-1.14,2.52,2.52,0,0,0,1.64-.34,10.6,10.6,0,0,0,1.06-.77c.67.17,1.07.4,1.2.68a5.88,5.88,0,0,1,.32,1.32,7.85,7.85,0,0,0,.35,1.53,3.29,3.29,0,0,0,1.13,1.54,10.71,10.71,0,0,0,0,1.27c0,.41.06.85.12,1.31q.12,1.31.15,2.67a8.4,8.4,0,0,1-.26,2.48A12.27,12.27,0,0,0,30,286.75a21.81,21.81,0,0,0-2.46,6.39,11.59,11.59,0,0,0-.29,2.75l.05,1,1.23.28a28.57,28.57,0,0,0,3.91,0,18.19,18.19,0,0,0,3.43-.55,21.86,21.86,0,0,0,3.26-1.15,37.73,37.73,0,0,0,3.47-1.8A19.67,19.67,0,0,0,46.08,291a25.47,25.47,0,0,0,3-3.46,34.13,34.13,0,0,0,2.41-3.8A34.72,34.72,0,0,0,53.25,280a2,2,0,0,0,1.66-1.21L55,278a.9.9,0,0,1,0-.57,1.62,1.62,0,0,1,.28-.42,3.3,3.3,0,0,1,2.46-1.26,16.61,16.61,0,0,1,1.36,2c.4.69.75,1.37,1.06,2a12.54,12.54,0,0,0-.39,2.68c0,.78,0,1.54,0,2.28s.09,1.37.1,2a9.45,9.45,0,0,1-.28,2.26,20.93,20.93,0,0,0-1.79,2.84c-.48.91-1,1.87-1.45,2.88l-.3.57c-1,.91-2,1.86-3.06,2.84s-1.87,1.84-2.55,2.58a4.08,4.08,0,0,0-.82.58c-.26.24-.5.48-.74.73a4.13,4.13,0,0,0-.48.45,2.36,2.36,0,0,1-.53.43L46.78,302l-.87,1.59-.95-.06-.9.55a20.75,20.75,0,0,1-3.82,2.81,19.61,19.61,0,0,1-4,1.62,31.88,31.88,0,0,1-4.57.9q-2.48.31-5.63.57a16.72,16.72,0,0,0-1.81-.8c-.53-.19-1-.39-1.53-.59s-1-.34-1.45-.53-1-.42-1.59-.69a1.54,1.54,0,0,0-.37-.91,1.48,1.48,0,0,0-.63-.44A3.9,3.9,0,0,1,17.56,304c-.16-.77-.3-1.63-.44-2.56,0-.49-.09-1-.15-1.49a7.9,7.9,0,0,0-.33-1.5l1.2,0-.89-2.1a4.91,4.91,0,0,0-.25-.44,3.29,3.29,0,0,1-.23-.5l.34-1Q18,289.82,19.3,286a22.3,22.3,0,0,1,3.17-6.37Z"/><path class="cls-51" d="M61.54,312.37a1.56,1.56,0,0,0-.77.83c-.15.38-.31.74-.49,1.09a2.23,2.23,0,0,1-.7.84,1.5,1.5,0,0,1-1.31.07c-.16.13-.2.22-.13.27s.11.2.11.46a1.41,1.41,0,0,0-1-.11,2.13,2.13,0,0,1-.76.12A3.82,3.82,0,0,1,55,314.35a10.61,10.61,0,0,1-.83-2.16,18.39,18.39,0,0,1-.47-2.3,15.32,15.32,0,0,0-.39-2.05c0-.12.09-.16.2-.12l.29.09a4.52,4.52,0,0,1-.11-1.13,2.09,2.09,0,0,0-.23-1.05q2-2.58,4.24-5.37l4.52-5.68c1.52-1.93,3.05-3.86,4.58-5.82s3-3.87,4.44-5.76a21.87,21.87,0,0,1,2.29,1.66,12.81,12.81,0,0,1,1.93,2A9,9,0,0,1,76.79,289a6.38,6.38,0,0,1,.39,2.7c-.1.17-.19.22-.27.14s-.16-.07-.25,0a1.26,1.26,0,0,1,.16.45.39.39,0,0,1-.07.23.79.79,0,0,0-.12.29,1.07,1.07,0,0,0,.12.56.34.34,0,0,0-.34,0c-.08.06-.19.05-.33-.05a1.84,1.84,0,0,1-.09,1.05,2.53,2.53,0,0,1-.43.62,2.9,2.9,0,0,0-.45.58,1.61,1.61,0,0,0-.14,1,.36.36,0,0,0-.28,0,1,1,0,0,0-.15.14.47.47,0,0,1-.15.13.26.26,0,0,1-.26,0,15.91,15.91,0,0,1-.46,2.46c-.21.82-.43,1.65-.65,2.49s-.42,1.73-.59,2.63a15.63,15.63,0,0,0-.26,2.87,9.8,9.8,0,0,0,3.91-2.29,16.92,16.92,0,0,0,2.89-3.7,33.82,33.82,0,0,0,2.21-4.64l2-5.12a3.85,3.85,0,0,0,1.1-1.07,11.85,11.85,0,0,0,.85-1.42l.78-1.51a6.3,6.3,0,0,1,.91-1.34,3.18,3.18,0,0,1,1.31.81,8,8,0,0,1,.89,1.13,12.38,12.38,0,0,0,.87,1.15,3.25,3.25,0,0,0,1.27.87c.3.72.57,1.4.81,2.06a5.26,5.26,0,0,1,.31,2.1,3.68,3.68,0,0,0-.65.93c-.17.35-.36.7-.55,1.05a4.83,4.83,0,0,1-.67.92,2.47,2.47,0,0,1-1,.61,21.87,21.87,0,0,1-1,2.51c-.37.77-.72,1.52-1,2.26s-.65,1.52-1,2.33a15.6,15.6,0,0,0-.75,2.71c-.48.83-1,1.69-1.55,2.56a18,18,0,0,0-1.34,2.46A5.15,5.15,0,0,0,81,314c-.49.61-1,1.21-1.53,1.81-.18.09-.28.09-.29,0s-.14-.17-.38-.26c0,.29-.13.45-.29.5s-.2.27-.12.68a5,5,0,0,0-1.62.66,9.44,9.44,0,0,1-1.58.82,4,4,0,0,1-1.82.3,5.19,5.19,0,0,1-2.4-.95,23.89,23.89,0,0,1-3.23-4.78A17.5,17.5,0,0,1,66,307a1.15,1.15,0,0,0-.84.45,9.88,9.88,0,0,0-.63.88c-.2.31-.4.6-.58.85a.62.62,0,0,1-.66.29,2.06,2.06,0,0,1-.52.69c-.22.19-.44.39-.64.59a2.72,2.72,0,0,0-.52.69,1.36,1.36,0,0,0-.1.95"/><path class="cls-51" d="M98.78,317.66a4.2,4.2,0,0,1-.58,2.53,3.14,3.14,0,0,1-1.52,1.19,4.43,4.43,0,0,1-2,.22,9.31,9.31,0,0,1-2-.42,8.61,8.61,0,0,1-.7-2.05c-.17-.81-.33-1.64-.46-2.5s-.23-1.7-.31-2.53-.14-1.56-.2-2.2a5.17,5.17,0,0,0,.59-1.45c.14-.55.26-1.12.37-1.7s.21-1.16.32-1.76a16.29,16.29,0,0,1,.4-1.7,25.34,25.34,0,0,1,1.77-4.19A30.78,30.78,0,0,0,96.23,297a1.45,1.45,0,0,0,0-.94,1.23,1.23,0,0,1,0-.83.43.43,0,0,1,.37-.25.43.43,0,0,0,.38-.3,2.13,2.13,0,0,0,.23-1,1.43,1.43,0,0,1,.33-.9,12.35,12.35,0,0,0,.88-1.18,3.3,3.3,0,0,0,.57-1.72,6.27,6.27,0,0,0,1-.63,9.23,9.23,0,0,1,1-.65,5.47,5.47,0,0,1,1.13-.47,3.34,3.34,0,0,1,1.43-.06,3,3,0,0,1,.39,1.28c0,.45.05.9.07,1.35a5.45,5.45,0,0,0,.23,1.29,1.89,1.89,0,0,0,.79,1c0,.29-.1.66-.17,1.09s-.11.87-.14,1.29a4.49,4.49,0,0,0,.07,1.18,1.08,1.08,0,0,0,.53.78c-.92,1.64-1.79,3.28-2.61,4.9a47.79,47.79,0,0,0-2.17,4.94,32.93,32.93,0,0,0-1.47,5.1,22.59,22.59,0,0,0-.45,5.35"/><path class="cls-51" d="M139.86,310.66a3.54,3.54,0,0,0-.08,1.33,9.59,9.59,0,0,0,.24,1.3c.11.43.21.87.3,1.31a7.41,7.41,0,0,1,.15,1.31,6.63,6.63,0,0,1-.26,1.75,10.9,10.9,0,0,1-.68,1.78,6.9,6.9,0,0,1-1,1.49,3.18,3.18,0,0,1-1.25.9,5.85,5.85,0,0,1-2.19,1.31,10.65,10.65,0,0,0-2.33,1.05,4.65,4.65,0,0,1-1.5.36l-1.62.11c-.46.16-1,.33-1.6.49s-1.24.3-1.89.42a12.45,12.45,0,0,1-1.9.18,6.93,6.93,0,0,1-1.62-.16,15.14,15.14,0,0,1-3.48.32,12.06,12.06,0,0,1-3.78-.83,9.87,9.87,0,0,1-3.78-.75,9.1,9.1,0,0,1-2.88-1.93,10.76,10.76,0,0,1-2-2.77,14.23,14.23,0,0,1-1.19-3.2,15.28,15.28,0,0,1,1.13-5.9,19.86,19.86,0,0,1,2.72-4.63,26.53,26.53,0,0,1,3.59-3.74q2-1.67,3.78-3.27a.58.58,0,0,0,.55.05,1.46,1.46,0,0,0,.43-.34,3.64,3.64,0,0,1,.45-.43.89.89,0,0,1,.53-.22,2.79,2.79,0,0,1,1.37-1.11,3.23,3.23,0,0,0,1.42-1,2.59,2.59,0,0,0,.91-.22,5.35,5.35,0,0,0,.74-.41c.24-.16.49-.31.74-.45a2.21,2.21,0,0,1,.86-.25l.1-.63a4.12,4.12,0,0,0,1.68-.83l1.39-1.29c.35,0,.63,0,.84.07a6.47,6.47,0,0,0,1,0,6.43,6.43,0,0,1,1-1.08,5.57,5.57,0,0,1,1.25-.69,4.86,4.86,0,0,0,1.45.69,2.54,2.54,0,0,1,1.35,1,1.51,1.51,0,0,0,.21.94,5,5,0,0,0,.54.67,7,7,0,0,1,.58.64,1.57,1.57,0,0,1,.31.87c.15.06.26.06.32,0s.18-.07.33,0a2.44,2.44,0,0,0,.24,1.12,3.22,3.22,0,0,1,.31,1.08,4.64,4.64,0,0,0-.61,1.11,1.35,1.35,0,0,1-.85.78c-.08.26,0,.41.16.46a.37.37,0,0,1,.3.37.9.9,0,0,1-.29.72,38.27,38.27,0,0,1,1.75,5.1,37.92,37.92,0,0,0,1.75,5.11m-8,4.36a2.9,2.9,0,0,1,.76-.94,2,2,0,0,0,.61-1.14,2.38,2.38,0,0,1-.24-.77,4.32,4.32,0,0,1,.07-.84,23.2,23.2,0,0,1-1.6-4.14,29.21,29.21,0,0,0-1.49-4.13,1.47,1.47,0,0,1-.47.4c-.21.12-.42.05-.61-.21a1.18,1.18,0,0,1-.5.6,1,1,0,0,1-.66.07,2.23,2.23,0,0,1-.69-.28,2.2,2.2,0,0,1-.6-.47c-1.25.71-2.49,1.4-3.72,2.08a16.87,16.87,0,0,0-3.43,2.47c-.16,0-.26.07-.3,0a.72.72,0,0,0-.35,0,9.88,9.88,0,0,1-1.42,1.81c-.53.52-1,1.06-1.56,1.61a12,12,0,0,0-1.39,1.78,6.7,6.7,0,0,0-.88,2.33,4.37,4.37,0,0,0,2.14,1.32,12.68,12.68,0,0,0,2.72.47,24.07,24.07,0,0,0,2.81.05,12.78,12.78,0,0,1,2.53.12,16.52,16.52,0,0,0,4.36-.9c1.25-.45,2.55-.91,3.91-1.37M142,280a6.19,6.19,0,0,0-1.64.57,23.35,23.35,0,0,0-3.06,1.77c-.65.41-1.43.92-2.34,1.55s-1.9,1.22-2.94,1.78a23.54,23.54,0,0,1-3.18,1.43,6.81,6.81,0,0,1-3,.42c-.23-.3-.45-.61-.68-.92a4.87,4.87,0,0,1-.54-.9,2.09,2.09,0,0,1-.18-.91,1.6,1.6,0,0,1,.44-1,3,3,0,0,1-.35-1.93,2,2,0,0,1,.76-1,8.44,8.44,0,0,1,1.22-.7,2.06,2.06,0,0,0,1-1.07c1-.83,2.14-1.66,3.34-2.52s2.34-1.73,3.42-2.62a2.73,2.73,0,0,0,1.2-.37,13.05,13.05,0,0,0,1.2-.79l1.23-.9a4.78,4.78,0,0,1,1.31-.71,1.34,1.34,0,0,0,.56.76q.5.39.81.27a2.09,2.09,0,0,0,.44,1.33,4,4,0,0,0,.91,1c.14.57.3,1.1.46,1.57a6.59,6.59,0,0,1,.32,1.37,3.91,3.91,0,0,1-.05,1.28A2.68,2.68,0,0,1,142,280"/><path class="cls-51" d="M155.35,316.42a1,1,0,0,0-.79.56c-.17.32-.34.64-.5,1s-.31.65-.46.93a.68.68,0,0,1-.64.4,1.7,1.7,0,0,1-.37.79q-.28.33-.54.69a3.09,3.09,0,0,0-.4.79,1.58,1.58,0,0,0,0,1,1.49,1.49,0,0,0-.64.94c-.11.42-.22.82-.34,1.2a2.31,2.31,0,0,1-.56.95,1.46,1.46,0,0,1-1.29.27c-.13.14-.15.24-.08.28s.13.19.15.42a1.38,1.38,0,0,0-1,0,1.79,1.79,0,0,1-.8.22,3.8,3.8,0,0,1-1.74-1.34,10.19,10.19,0,0,1-1.15-2c-.32-.74-.6-1.48-.85-2.23s-.48-1.41-.71-2a2.78,2.78,0,0,0,.14-1.24,2.66,2.66,0,0,0-.34-1q3.22-5.84,7-12.45t7.24-13.07a28.69,28.69,0,0,1,2.56,1.36,13.9,13.9,0,0,1,2.27,1.68,9.07,9.07,0,0,1,1.69,2.12,6.32,6.32,0,0,1,.83,2.58c-.1.23-.19.31-.28.24s-.18,0-.27.07a1.51,1.51,0,0,1,.23.42.49.49,0,0,1,0,.24,1.66,1.66,0,0,0-.05.31,1.33,1.33,0,0,0,.14.56c-.15,0-.26,0-.32,0s-.19.07-.38,0a2,2,0,0,1,.08,1.05,2.8,2.8,0,0,1-.31.7,3.89,3.89,0,0,0-.33.68,1.62,1.62,0,0,0,0,1,.31.31,0,0,0-.26.07l-.16.16a1.14,1.14,0,0,1-.15.17.25.25,0,0,1-.27,0,13.55,13.55,0,0,1,0,2.55c-.09.85-.17,1.71-.25,2.57s-.12,1.78-.14,2.73a15,15,0,0,0,.21,3,9.89,9.89,0,0,0,3.53-2.91,18.5,18.5,0,0,0,2.3-4.16,30.56,30.56,0,0,0,1.52-5c.39-1.8.8-3.63,1.23-5.51a3.6,3.6,0,0,0,.89-1.22c.22-.48.43-1,.62-1.55l.57-1.65a8.62,8.62,0,0,1,.68-1.5,3.19,3.19,0,0,1,1.44.65,10.2,10.2,0,0,1,1.07,1,12.16,12.16,0,0,0,1,1,3.07,3.07,0,0,0,1.41.65c.42.68.81,1.35,1.15,2a5.23,5.23,0,0,1,.63,2,3.29,3.29,0,0,0-.5,1c-.13.38-.26.76-.4,1.14a4.85,4.85,0,0,1-.53,1,2.6,2.6,0,0,1-.86.78c-.18,1-.39,1.91-.61,2.73l-.69,2.42c-.22.8-.42,1.63-.59,2.49a17.32,17.32,0,0,0-.3,2.86L174,316.75q-.62,1.47-1,2.67a5.38,5.38,0,0,0-1.56,1.7q-.58,1-1.23,2c-.17.15-.27.18-.3.1s-.17-.15-.39-.2a.54.54,0,0,1,0,.35.58.58,0,0,1-.16.19.49.49,0,0,0-.13.25.94.94,0,0,0,.06.47,4.53,4.53,0,0,0-1.51.89,10,10,0,0,1-1.44,1.07,4,4,0,0,1-1.78.58,5.37,5.37,0,0,1-2.6-.57A21.83,21.83,0,0,1,158,322a19,19,0,0,1-2.64-5.57"/><path class="cls-51" d="M219.46,317.4a4.6,4.6,0,0,1-.3,1.56,8.28,8.28,0,0,1-.71,1.43,13.35,13.35,0,0,1-.94,1.33,14.6,14.6,0,0,1-1,1.13,2,2,0,0,1,.1,1.12,2.58,2.58,0,0,0,0,1.14,5.17,5.17,0,0,1-2.47,3.24,3.21,3.21,0,0,1-3.35-.14,3.92,3.92,0,0,1-1.13-1.13,1.81,1.81,0,0,0-1.24-.83,3.79,3.79,0,0,0-.28-2c-.26-.65-.53-1-.81-1q-.24-1.2-.66-2.58c-.28-.91-.54-1.83-.79-2.77s-.45-1.85-.64-2.75a13,13,0,0,1-.28-2.52,1.73,1.73,0,0,0-.26-1,3.53,3.53,0,0,1-.43-1.08,12.59,12.59,0,0,1-.3-2.8c0-1,0-1.92-.06-2.81s-.15-1.77-.3-2.75l-.41-2.82c-.12-.9-.21-1.73-.25-2.48a4.41,4.41,0,0,1,.2-1.79,3.05,3.05,0,0,1,.89-1.18,9.42,9.42,0,0,0,1.08-1,2.82,2.82,0,0,1,2.08.93,2.09,2.09,0,0,1,.68,1.71,6,6,0,0,1,2,1.83,11.49,11.49,0,0,1,1.3,2.6,18.74,18.74,0,0,1,.78,3.1c.17,1.09.33,2.17.46,3.23s.27,2.07.4,3a11.11,11.11,0,0,0,.59,2.46q2-3.18,3.3-5.66t2.71-4.77q1.38-2.28,3.12-4.64a59.93,59.93,0,0,1,4.53-5.35,3.17,3.17,0,0,1,1,.18c.26.1.48.19.68.25a4.65,4.65,0,0,0,.71.17,3.24,3.24,0,0,0,1.1-.09c.17.38.3.65.39.82s.16.34.23.51.15.39.27.65.29.65.55,1.14a.47.47,0,0,1,.14.45c0,.2,0,.38-.06.56s0,.3,0,.38.11.07.29,0a4.3,4.3,0,0,1-.52,1.51,2.54,2.54,0,0,0-.3,1.61q-1.23,1.81-2.73,3.75c-1,1.29-2,2.63-3,4s-1.93,2.8-2.82,4.3a30.44,30.44,0,0,0-2.24,4.68.54.54,0,0,0-.43.2,2.55,2.55,0,0,0-.24.39,2.55,2.55,0,0,1-.24.39.46.46,0,0,1-.36.19"/><path class="cls-51" d="M261.82,292.35a2.28,2.28,0,0,1,0,.61c0,.14,0,.26-.06.38a2.25,2.25,0,0,0,0,.38,2.43,2.43,0,0,0,.12.61,6.66,6.66,0,0,1-2.82,2.69,14,14,0,0,1-3.45,1.05l-3.8.66a11.47,11.47,0,0,0-3.85,1.51,1.71,1.71,0,0,0-1.37,0,3.42,3.42,0,0,1-1.77.18,2,2,0,0,1-.87.49c-.35.1-.69.2-1,.32a2.34,2.34,0,0,1,.2,1.07,1.74,1.74,0,0,0,.15.9,24.34,24.34,0,0,0,4.49-.06c1.64-.15,3.26-.25,4.84-.29,0,.2,0,.32-.05.38s-.1.16-.06.32a5.24,5.24,0,0,1,.81.72l.81.84a4.26,4.26,0,0,0,.84.67,1.57,1.57,0,0,0,1,.2,3.69,3.69,0,0,1,.32,1,2,2,0,0,1-.15,1.13c-.62.43-1.24.86-1.85,1.31a14.87,14.87,0,0,1-1.95,1.18,11.78,11.78,0,0,1-2.14.85,8.11,8.11,0,0,1-2.52.26h-.44a.7.7,0,0,1-.38-.18,1.93,1.93,0,0,1-1.3.18,2,2,0,0,0-1.31.17,3.44,3.44,0,0,0-1.53-.26,4.68,4.68,0,0,1-1.6-.2,19.39,19.39,0,0,0-1.68,2.61,23.39,23.39,0,0,0-1.34,2.95,17.3,17.3,0,0,0,3.28.24c.87,0,1.69-.11,2.47-.21l2.37-.29a22.26,22.26,0,0,1,3.08-.08,7.47,7.47,0,0,1,2.75-.84,14.65,14.65,0,0,0,2.93-.67,1.9,1.9,0,0,1,.82.61l.66.81a6.05,6.05,0,0,0,.67.67,1.11,1.11,0,0,0,.87.23,1.27,1.27,0,0,1,.32.55c.06.21.1.42.14.61a1.21,1.21,0,0,0,.21.49.45.45,0,0,0,.49.15,8.9,8.9,0,0,1-2,2.93,8,8,0,0,1-2.58,1.53,17.82,17.82,0,0,1-3.22.81c-1.18.2-2.49.43-3.92.7a1.4,1.4,0,0,1-.87,0,2.21,2.21,0,0,0-.81-.14c-.89.19-1.95.36-3.19.52a24.81,24.81,0,0,1-3.77.17,17.19,17.19,0,0,1-3.65-.49,6,6,0,0,1-2.85-1.54,1.84,1.84,0,0,1-.6-1,1.32,1.32,0,0,0-.79-.85,15.18,15.18,0,0,0-.23-1.68c-.12-.62-.23-1.26-.35-1.94s-.2-1.34-.26-2a5.85,5.85,0,0,1,.09-1.8,3.69,3.69,0,0,1,.72-1.57,1.71,1.71,0,0,0,.38-1.5.42.42,0,0,0,.35-.32c0-.18.19-.24.46-.21.23-.69.49-1.35.76-2s.55-1.22.84-1.8.58-1.16.87-1.77a20.47,20.47,0,0,0,.84-2,4.75,4.75,0,0,1-1.19-1.65,8.84,8.84,0,0,1-.55-1.8c-.12-.6-.21-1.21-.29-1.85a11.7,11.7,0,0,0-.41-1.95,5.05,5.05,0,0,1,1.42-1.42,9.16,9.16,0,0,1,1.83-.9,16.72,16.72,0,0,1,2.15-.58c.77-.15,1.58-.32,2.43-.52,1.55-.5,2.93-.89,4.15-1.16s2.42-.49,3.6-.67,2.4-.33,3.68-.49,2.73-.38,4.35-.69a1.49,1.49,0,0,0,1,.52c.15-.35.33-.46.55-.32s.3,0,.26-.32a5.33,5.33,0,0,0,1.48,1.65,9.25,9.25,0,0,0,2,1.13"/><path class="cls-51" d="M269.9,316.62a33.54,33.54,0,0,1-.5,3.66,11.16,11.16,0,0,1-1,2.68,1.21,1.21,0,0,0-1,.35,5.3,5.3,0,0,1-.54.63,1.25,1.25,0,0,1-.74.13,2.34,2.34,0,0,1-.45-.19,3,3,0,0,0-.47-.21,1.74,1.74,0,0,0-.8,0c-.13-.29-.27-.56-.41-.81s-.41-.3-.82-.15a1.84,1.84,0,0,0-.08-.78,3.5,3.5,0,0,0-.24-.55,3.12,3.12,0,0,1-.23-.49,1.33,1.33,0,0,1-.06-.66c-.19,0-.37-.07-.53-.32a7.22,7.22,0,0,0-.54-.73c0-.71,0-1.37,0-2a14.34,14.34,0,0,1,.13-1.79,16.08,16.08,0,0,0,.14-1.68,2.8,2.8,0,0,0-.46-1.63c.17.09.28,0,.33-.14a2.56,2.56,0,0,0,0-.72,6.11,6.11,0,0,0-.09-.86,3.27,3.27,0,0,0-.19-.71,22.86,22.86,0,0,0,.41-3.22c.06-1.09.11-2.17.14-3.23s.07-2.12.12-3.15a14.66,14.66,0,0,1,.44-2.9,2.86,2.86,0,0,1,1.42-.1,1.47,1.47,0,0,1,1.06.49,13,13,0,0,0,2.14-3.23c.57-1.22,1.16-2.42,1.78-3.58a17.6,17.6,0,0,1,2.18-3.21,6.73,6.73,0,0,1,3.43-2.08c.86.44,1.81.87,2.85,1.3a7.53,7.53,0,0,1,2.72,1.9,4.65,4.65,0,0,1,.86.35,7,7,0,0,0,.86.41l.12.69a4.84,4.84,0,0,1,1.37,1.26,14,14,0,0,1,1.09,1.63l1,1.77a13.65,13.65,0,0,0,1.12,1.65,1.56,1.56,0,0,0,0,.51,1.24,1.24,0,0,0,.16.41,4.64,4.64,0,0,1,.23.44,1.81,1.81,0,0,1,.11.62,6.44,6.44,0,0,1-.92,4.35,12.1,12.1,0,0,1-3.07,3.16,28.85,28.85,0,0,1-4.1,2.45,43,43,0,0,0-4,2.23c0,.16.11.22.25.2s.19.06.19.26l2.41,1c.59.24,1.15.44,1.66.59a13.38,13.38,0,0,0,1.65.33c.58.07,1.39.13,2.42.19l2.41.13c.58,0,1.1.07,1.57.08a13.84,13.84,0,0,0,1.44,0q.74,0,2.07-.15a5,5,0,0,1,1.1,1.07,4.77,4.77,0,0,1,.73,1.34,5.85,5.85,0,0,1,.3,1.36,1.86,1.86,0,0,1-.21,1.13.21.21,0,0,0,.28.1,1.21,1.21,0,0,1,.43-.05,2.39,2.39,0,0,0-.47.67l-.33.77a3.4,3.4,0,0,1-.41.69,1.39,1.39,0,0,1-.75.45,7.74,7.74,0,0,1-4.44.87,49.77,49.77,0,0,1-7.18-1c-1.47-.29-2.66-.56-3.59-.81a19.9,19.9,0,0,1-2.44-.81,13.57,13.57,0,0,1-1.94-1c-.59-.36-1.31-.8-2.15-1.33m4.73-21a10.59,10.59,0,0,1-1.11,1.91c-.43.58-.83,1.17-1.22,1.77a11.37,11.37,0,0,0-1,1.94,6.67,6.67,0,0,0-.42,2.34,16.09,16.09,0,0,0,4-1.85l3.82-2.4a5.17,5.17,0,0,0-4.07-3.71"/><path class="cls-51" d="M318.86,299.3c0,.2,0,.37,0,.51s0,.27,0,.39a1.26,1.26,0,0,0,0,.43q0,.27.12.66a17.47,17.47,0,0,1-3.42,5.84,34.17,34.17,0,0,1-5.07,4.64,70.8,70.8,0,0,1-6,4q-3.13,1.88-6.08,3.93a4.14,4.14,0,0,1-2.29-.78,5.68,5.68,0,0,1-1.41-1.66,10.56,10.56,0,0,1-.92-2.26c-.25-.84-.49-1.71-.73-2.61a3.18,3.18,0,0,1,.3-1.14,2,2,0,0,0,.1-1.28c.13-1,.27-2.07.4-3.08a12.64,12.64,0,0,0,.06-3,1.05,1.05,0,0,1,.52-.74,29.11,29.11,0,0,0-.95-5.57,29.89,29.89,0,0,0-1.87-5.12,4,4,0,0,1,0-.86c0-.18,0-.3-.1-.36-.09-.3,0-.47.24-.52l.77-.13a5.09,5.09,0,0,0-.62-1.66c-.31-.53-.62-1.15-.94-1.84a5.84,5.84,0,0,0,.22-1.77,3.57,3.57,0,0,1,.26-1.55,44.79,44.79,0,0,1,6.32,1.3,25.81,25.81,0,0,0,5.92,1c1.55.75,3.13,1.49,4.75,2.2a28.34,28.34,0,0,1,4.5,2.51,16.66,16.66,0,0,1,3.67,3.45,12.62,12.62,0,0,1,2.3,5.07m-13,5.52c.74-.44,1.48-.91,2.2-1.39a14.54,14.54,0,0,0,2-1.55,10,10,0,0,0,1.54-1.83,7.23,7.23,0,0,0,.95-2.29,4.57,4.57,0,0,0-1.13-1.06c-.45-.3-.89-.57-1.33-.83l-1.29-.81a4,4,0,0,1-1.1-1.1,3.87,3.87,0,0,1-1.39-.2c-.42-.14-.83-.28-1.22-.43s-.82-.28-1.25-.4a3.87,3.87,0,0,0-1.46-.09,13.44,13.44,0,0,0-2.42-.52,3.75,3.75,0,0,1-1.64-.48,1,1,0,0,0-.6.29,39.16,39.16,0,0,1,1.57,3.93,27.9,27.9,0,0,1,1,3.77,33,33,0,0,1,.49,3.95c.08,1.36.12,2.84.13,4.45a3.55,3.55,0,0,0,1-.44l.9-.6c.3-.21.61-.41.95-.61a4.58,4.58,0,0,1,1.24-.48,1.7,1.7,0,0,1,.39-.66,5.26,5.26,0,0,0,.51-.62"/><path class="cls-51" d="M346.9,277.19a2,2,0,0,1,.16.56l0,.37a2.33,2.33,0,0,0,.06.35,2.45,2.45,0,0,0,.24.55,6.5,6.5,0,0,1-2.14,3.16,14.2,14.2,0,0,1-3.13,1.77l-3.55,1.49a11.61,11.61,0,0,0-3.43,2.3,1.67,1.67,0,0,0-1.32.31,3.73,3.73,0,0,1-1.69.57,1.91,1.91,0,0,1-.74.66l-.94.53a2.19,2.19,0,0,1,.43,1,1.68,1.68,0,0,0,.34.81,26.17,26.17,0,0,0,4.36-1.09q2.35-.78,4.65-1.38c.08.18.09.3,0,.37a.27.27,0,0,0,0,.31,5.06,5.06,0,0,1,1,.49l1,.6a4,4,0,0,0,1,.43,1.66,1.66,0,0,0,1,0,3.22,3.22,0,0,1,.53.88,2,2,0,0,1,.11,1.09c-.51.54-1,1.08-1.52,1.64a16,16,0,0,1-1.63,1.56,11.87,11.87,0,0,1-1.9,1.27,8.27,8.27,0,0,1-2.4.83l-.43.1a.75.75,0,0,1-.4-.08,2,2,0,0,1-1.23.46,2.06,2.06,0,0,0-1.24.46,3.68,3.68,0,0,0-1.55.11,4.86,4.86,0,0,1-1.6.18,19,19,0,0,0-1.06,2.82,21.7,21.7,0,0,0-.65,3.07,19.14,19.14,0,0,0,3.24-.53c.84-.24,1.63-.49,2.36-.76l2.25-.81a22,22,0,0,1,3-.79,8,8,0,0,1,2.5-1.41,15,15,0,0,0,2.7-1.3,2,2,0,0,1,.93.38c.29.22.56.43.83.61a5,5,0,0,0,.79.47,1.12,1.12,0,0,0,.9,0,1.21,1.21,0,0,1,.43.44c.1.19.2.37.28.54a1.18,1.18,0,0,0,.3.41.46.46,0,0,0,.51,0,8.21,8.21,0,0,1-1.3,3.2,7.79,7.79,0,0,1-2.17,2,19.45,19.45,0,0,1-3,1.49c-1.1.46-2.32,1-3.66,1.55a1.47,1.47,0,0,1-.85.17,2.34,2.34,0,0,0-.82.05c-.83.39-1.82.8-3,1.22a25.63,25.63,0,0,1-3.63,1,18.09,18.09,0,0,1-3.67.38,6,6,0,0,1-3.1-.79,1.81,1.81,0,0,1-.81-.76,1.24,1.24,0,0,0-.94-.6,14.81,14.81,0,0,0-.6-1.52c-.25-.55-.5-1.13-.77-1.74s-.49-1.21-.69-1.81a5.43,5.43,0,0,1-.31-1.7,3.32,3.32,0,0,1,.36-1.63,1.6,1.6,0,0,0,0-1.49.4.4,0,0,0,.27-.38c0-.17.14-.27.41-.3a20.19,20.19,0,0,1,.3-2c.13-.64.27-1.27.42-1.88s.31-1.22.46-1.85a20.6,20.6,0,0,0,.38-2.06,4.59,4.59,0,0,1-1.52-1.28,8.06,8.06,0,0,1-.93-1.55c-.25-.53-.48-1.09-.69-1.67a10.83,10.83,0,0,0-.83-1.72,5,5,0,0,1,1.08-1.66,8.14,8.14,0,0,1,1.58-1.25,15,15,0,0,1,2-1q1.08-.48,2.25-1.05c1.4-.82,2.66-1.5,3.79-2s2.24-1,3.35-1.45,2.27-.86,3.48-1.3,2.56-1,4.08-1.65a1.41,1.41,0,0,0,1.07.26c.08-.36.23-.5.47-.42s.3,0,.18-.36a5.28,5.28,0,0,0,1.81,1.21,9.54,9.54,0,0,0,2.19.6"/></g></g></svg>